<?xml version="1.0" encoding="utf-8"?>
<!-- Generator: Adobe Illustrator 19.2.1, SVG Export Plug-In . SVG Version: 6.00 Build 0)  -->
<svg version="1.1" id="Layer_1" xmlns="http://www.w3.org/2000/svg" xmlns:xlink="http://www.w3.org/1999/xlink" x="0px" y="0px"
	 viewBox="0 0 570.9 344.9" style="enable-background:new 0 0 570.9 344.9;" xml:space="preserve">
<style type="text/css">
	.st0{fill:#FFFFFF;}
</style>
<g>
	<path class="st0" d="M111.6,168.1c0,3.6-9.6,11.4-25.4,14c-9.8,23.4-25.4,53.8-56.2,53.8c-16.8,0-30-9.2-30-24.6
		c0-9,6.2-15.2,13.6-15.2c7.2,0,10.4,5.4,10.4,10.4c0,1.8-0.8,4.8-2.4,7.2c-0.8-0.6-2.4-1.2-3.8-1.2c-2,0-4.8,1.4-4.8,5.4
		c0,7.6,8.4,13,19,13c23.2,0,37.8-26.2,47.4-48c-20.6,0.6-50-7.6-50-31.4c0-21.2,22.6-29.2,43-29.2c9.4,0,17.8,1.8,25.8,4.2
		c12.4-39.8,27.2-79.4,53.2-79.4h2.8v3.8H153c-4.4,0-5.8,2.6-5.8,5.8v84.6h3.8c10.4,0,6.4-4.4,8.6-4.4c1,0,1.8,1,1.8,2.4
		c0,3.8-3.8,5.2-10.4,5.2h-3.8v40.4c0,4.8,0.4,10.6,7.4,10.6h2v3.4h-38.2v-3.4h2.4c7.4,0,7.8-5.8,7.8-10.6v-44
		c-8.4-2.6-17-6.2-25.8-9.2c-5,16.6-10.2,33.4-15.6,47.6c15.8-3.2,19.6-13,22.8-13C111,166.3,111.6,166.9,111.6,168.1z M80.4,180.1
		c5.6-14,11-31.8,16.8-50.2c-6.8-1.8-13.8-3.2-21.2-3.2c-17.2,0-37.4,6.4-37.4,26.2C38.6,171.7,59.4,181.1,80.4,180.1z M104,128.3
		c8.6,3,16.8,6.4,24.6,9V67.5C118.8,82.1,111.2,104.9,104,128.3z"/>
	<path class="st0" d="M271,1.1c19.8,0,55.6,10.4,55.6,45.2c0,23.8-19.4,41.9-45.2,41.9c-17.8,0-32.2-8.6-39.4-22.5l2.3-0.2
		c6.5,13.1,19.8,21.4,37.6,21.4c24.3,0,41-16.9,41-40.1c0-33.5-32.4-43.6-51.8-43.6c-58.5,0-90.5,53.5-90.5,108.4v11.3
		c2.9-4.5,7.4-7.7,14.2-7.7c17.3,0,27.2,18.7,27.2,41.2c0,23.2-11.9,43.6-30.1,43.6c-1.8,0-7.2-0.2-11.3-5.9v4.9h-22.1v-3.1h2
		c2.5,0,5-0.4,5-5.4v-74.3C165.6,55.4,203.7,1.1,271,1.1z M180.7,138.6v45.7c1.3,6.5,4.5,11.7,11,11.7c14,0,14.9-29.3,14.9-39.4
		c0-29.7-6.3-37.6-13.5-37.6C183.9,119,180.7,129.8,180.7,138.6z"/>
	<path class="st0" d="M253.4,184.5c0-19.6-31.3-25.2-31.3-48.2c0-12.6,11.3-21.1,22.9-21.1c5.2,0,11.3,1.3,16,2.9v19.6h-3.8
		c-0.5-7.6-3.2-19.4-13.3-19.4c-7,0-10.4,5.9-10.4,10.8c0,17.1,31.5,25.7,31.5,48.1c0,13.5-12.2,22.9-24.7,22.9
		c-12.8,0-19.6-9.2-19.6-18c0-7.6,5-14.9,14.2-14.9c4.5,0,11.5,1.8,11.5,10.1c0,4-2.9,6.8-6.3,6.8c-1.8,0-3.1-0.4-5-1.4
		c3.1-0.4,4.1-2.5,4.1-4.7c0-3.1-2-5.4-5.8-5.4c-5.9,0-8.3,5.4-8.3,10.4c0,8.5,7,13.9,14.4,13.9
		C247.3,196.7,253.4,191.7,253.4,184.5z"/>
	<path class="st0" d="M288,116.5v74c0,3.8,2,5.4,4.7,5.4h1.8v3.1h-28.6v-3.1h2c2.5,0,5-0.4,5-5.4v-65.9c0-4.1-2.2-5.2-4.3-5.2h-5
		c-52.2,0-84.6,32.6-84.6,78.7c0,40.3,31.7,63.4,60.5,63.4c19.6,0,36-11.2,36-30.8c0-12.4-7.6-23.6-20.7-23.6
		c-9.4,0-16.9,4.7-16.9,12.6c0,4.3,2.5,7.4,6.5,7.4c0.9,0,2-0.4,2.5-0.7c-0.5,2.3-3.6,4-6.5,4s-7.4-2-7.4-8.5c0-9,9-16.6,22.7-16.6
		c12.4,0,24.3,8.3,24.3,24.5c0,22.1-18.9,32.9-40.3,32.9c-30.8,0-62.6-24.5-62.6-65.7c0-45.4,31-79.4,88.4-80.5H288z M279,89.8
		c5.6,0,9.7,4.9,9.7,9.7c0,6.3-4.1,10.6-9.7,10.6c-5.4,0-9.7-4.3-9.7-10.6C269.2,94.7,273.6,89.8,279,89.8z"/>
	<path class="st0" d="M318.2,116.5v5c2.7-3.4,8.1-6.3,15.1-6.3c18,0,25.2,13,25.2,29.5c0,17.8-9.9,29-20,43.2
		c-1.3,1.6-5.8,9.7-5.8,15.1c0,2.5,1.3,4.9,4.5,4.9c2.3,0,4.3-1.3,5-3.8c1.1,1.3,1.8,3.4,1.8,5.2c0,4.1-3.6,7.9-8.5,7.9
		c-4.7,0-9.2-4.1-9.2-11.2c0-16.6,16.9-25.9,16.9-63.2c0-13.5-3.2-23-13.9-23c-6.3,0-11.3,5-11.3,12.2v58.3c0,3.8,2,5.4,4.7,5.4h1.8
		v3.1h-28.6v-3.1h2c2.5,0,5-0.4,5-5.4v-65.9c0-5-2.7-5.2-5.2-5.2h-2.3v-2.9H318.2z"/>
	<path class="st0" d="M381.6,120.6v63.5c0,6.7,2.9,10.4,8.3,10.4c1.6,0,5-0.9,7.4-5.4l2.3,1.8c-4.3,6.5-8.8,9-15.1,9
		c-10.1,0-18.2-5.4-18.2-18.5v-60.8h-7.9v-2.9c2.5-0.4,5.2-0.9,7.4-2.3c5.4-3.4,9.7-9.5,12.4-17.5h3.4v19.4h3.8
		c8.3,0,16.4-2,16.4-9.7c0-2.5-1.3-4.7-3.4-6.3c1.3-1.3,3.1-1.8,5-1.8c4.1,0,8.1,2.5,8.1,7.6c0,7.2-5.4,13.5-27,13.5H381.6z"/>
	<path class="st0" d="M358,266.4c-30.6-19.8-52.4-52-52.4-91.4c0-62.5,50.2-105.1,112.3-109.3c2-4.7,4.1-9.2,6.7-13.3
		C443.5,21.2,477.1,0,520.1,0c31.5,0,50.8,14.4,50.8,32.4c0,18.9-13.5,41-63.4,41c-27.5,0-52.4-5.9-76.5-6.5
		c-5.2,14.6-7.7,31.1-7.7,45.9v9.2c2.7-4,9.4-6.8,15.7-6.8c11.5,0,21.4,6.3,21.4,20.7v54.5c0,3.8,1.4,5.4,4.5,5.4h1.8v3.1h-28.1
		v-3.1h2c2.5,0,4.7-0.4,4.7-5.4v-56.2c0-7.6-3.2-13.7-11.2-13.7c-5.6,0-10.4,4-10.8,10.1v59.8c0,3.8,1.6,5.4,4.7,5.4h0.9v3.1h-27.2
		v-3.1h1.4c2.5,0,5-0.4,5-5.4v-73.1c0-16.7,3.1-34.6,9.2-50c-58.5,4.3-110,43.4-110,108.2c0,38.3,21.1,70,50.8,89.6
		c2.7-31.3,39.2-46.8,73.1-46.8c28.3,0,62.1,10.3,62.1,35.6c0,11-6.5,18.7-15.7,24.1c0.4,1.6,0.5,3.2,0.5,5
		c0,25.2-28.6,36.4-54.2,36.4c-28.3,0-66.1-17.5-66.1-50.6V266.4z M437.4,253.6c15.8,0,35.6,7.4,40,23c8.1-5,13.7-12.2,13.7-22.3
		c0-24.8-32.9-34.7-59.2-34.7c-31.9,0-70.9,14.8-71.6,47c20.9,13.1,45.9,20.7,70.9,20.7c13.9,0,32-2.5,44.8-9.7
		c-3.2-15.3-24.7-22.7-38.7-22.7c-7,0-20.5,2-27.2,7.4l-1.3-0.7C408.7,261.5,419,253.6,437.4,253.6z M476,279.2
		c-12.8,6.8-30.4,9.4-44.8,9.4c-24.8,0-49.9-7.6-71.1-20.7c0.4,30.4,38.7,44.3,63.9,44.3c19.8,0,52.2-8.6,52.2-30.6
		C476.2,280.6,476,279.9,476,279.2z M431.6,65.3c24.7,0.5,46.3,6.5,76.7,6.5c24.5,0,56.2-7.7,56.2-37.4c0-25.4-24.7-32.2-45.9-32.2
		c-39.8,0-68.4,23.9-83.3,55.1C433.9,59.9,432.7,62.6,431.6,65.3z"/>
	<path class="st0" d="M482.9,162.2c0,27.7,5.8,34.4,13.3,34.4h0.7c10.6,0,14.6-13,16.7-22.1h5.8c-2.7,11.9-9.2,25.6-23,25.6
		c-18,0-29-20.2-29-41.8c0-22,10.3-42.8,28.1-43c11.7,0,18.9,8.8,22.1,19.3c1.1,3.8,1.6,7.6,2,11.5c20.7-1.3,39.8-9.5,39.8-33.1
		c0-12.1-7.6-21.4-20.2-21.4c-10.3,0-18.7,7-18.7,18.2c0,4.7,3.1,11.2,9,11.2c2.9,0,7-2.5,7-5.8c0-1.3-0.2-2.7-1.3-3.6
		c0,0,0.9-0.4,1.8-0.4c3.8,0,6.7,2.7,6.7,6.3c0,5.2-5.8,8.5-11.5,8.5c-8.6,0-15.3-7.4-15.3-15.7c0-12.4,10.8-20.9,23.4-20.9
		c12.6,0,23.9,9.9,23.9,23.9c0,13.3-7.2,22-16,27.4c-13,8.1-25.9,7.4-39.8,9.7c-5.4,0.9-9.9,3.1-9.9,7.7c0,2.3,1.6,4.5,5,4.9
		c-1.3,3.4-5,5.8-8.1,5.8c-4.3,0-8.6-2.7-8.6-7.9c0-8.3,12.1-11.7,18-13.1c0-2,0-4.5-0.2-6.5c-0.5-11.3-2.3-23.2-9.2-23.2
		C488.1,117.9,482.9,132.1,482.9,162.2z"/>
</g>
</svg>
